<?xml version="1.0" encoding="UTF-8"?>
<svg xmlns="http://www.w3.org/2000/svg" viewBox="0 0 162.47 131.66">
  <defs>
    <style>
      .cls-1 {
        letter-spacing: .11em;
      }

      .cls-1, .cls-2, .cls-3, .cls-4, .cls-5, .cls-6, .cls-7, .cls-8 {
        fill: #d9002b;
      }

      .cls-9 {
        letter-spacing: .11em;
      }

      .cls-9, .cls-10, .cls-11, .cls-12, .cls-13 {
        fill: #002055;
      }

      .cls-2 {
        letter-spacing: .09em;
      }

      .cls-10 {
        letter-spacing: .11em;
      }

      .cls-14 {
        isolation: isolate;
      }

      .cls-3, .cls-15, .cls-11, .cls-16 {
        stroke-width: 0px;
      }

      .cls-15 {
        fill: #fff;
      }

      .cls-4 {
        letter-spacing: .13em;
      }

      .cls-5 {
        letter-spacing: .06em;
      }

      .cls-17 {
        font-family: Poppins-Bold, Poppins;
        font-size: 18px;
        font-weight: 700;
      }

      .cls-6 {
        letter-spacing: .13em;
      }

      .cls-7 {
        letter-spacing: .12em;
      }

      .cls-12 {
        letter-spacing: .08em;
      }

      .cls-16 {
        fill: #919191;
        mix-blend-mode: multiply;
        opacity: .7;
      }

      .cls-13 {
        letter-spacing: .13em;
      }

      .cls-8 {
        letter-spacing: .12em;
      }
    </style>
  </defs>
  <g class="cls-14">
    <g id="OBJECTS">
      <g>
        <g>
          <polygon class="cls-11" points="115.16 25.18 40.34 25.18 40.34 72.96 67.38 72.96 67.38 99.07 115.16 99.07 115.16 25.18"/>
          <path class="cls-3" d="M116.45,25.18h-1.29v-1.29c0-13.19-10.7-23.89-23.89-23.89s-23.89,10.7-23.89,23.89v49.07h49.07c13.2,0,23.89-10.7,23.89-23.89s-10.7-23.89-23.89-23.89Z"/>
          <path class="cls-16" d="M120.18,69.22h-49.07V20.15c0-5.65,1.96-10.83,5.24-14.92-5.47,4.38-8.97,11.11-8.97,18.66v49.07h49.07c7.55,0,14.28-3.51,18.66-8.97-4.09,3.27-9.27,5.24-14.92,5.24Z"/>
          <g>
            <path class="cls-16" d="M78.24,62.98v-29.91c0-8.88,7.22-16.1,16.1-16.1,8.15,0,14.9,6.08,15.96,13.95,7.86,1.05,13.95,7.81,13.95,15.96,0,8.88-7.22,16.1-16.1,16.1h-29.91Z"/>
            <path class="cls-15" d="M108.14,33.78h-.7v-.7c0-7.24-5.87-13.1-13.1-13.1s-13.1,5.87-13.1,13.1v26.91h26.91c7.24,0,13.1-5.87,13.1-13.1s-5.87-13.1-13.1-13.1Z"/>
          </g>
          <path class="cls-11" d="M92.81,47.74c-.34-.34-.88-.41-1.29-.15l-26.55,16.34c-1.59.41-3.1,1.24-4.35,2.49-1.25,1.25-2.07,2.75-2.48,4.35l-16.34,26.55c-.25.41-.19.95.15,1.29.34.34.88.41,1.29.15l26.55-16.34c1.59-.41,3.1-1.24,4.35-2.48,1.25-1.25,2.07-2.75,2.48-4.35l16.34-26.55c.25-.41.19-.95-.15-1.29ZM72.65,78.44c-2.91,2.91-7.64,2.91-10.55,0-2.91-2.91-2.91-7.64,0-10.55,2.91-2.91,7.64-2.91,10.55,0,2.91,2.91,2.91,7.64,0,10.55ZM76.75,71.36c-.35-1.81-1.22-3.54-2.62-4.94-1.4-1.4-3.13-2.27-4.94-2.62l19.68-12.11-12.11,19.68Z"/>
        </g>
        <text class="cls-17" transform="translate(0 120.76)"><tspan class="cls-12" x="0" y="0">C</tspan><tspan class="cls-10" x="15.21" y="0">A</tspan><tspan class="cls-9" x="30.51" y="0">L</tspan><tspan class="cls-13" x="41.09" y="0">M</tspan><tspan class="cls-1" x="59.9" y="0">C</tspan><tspan class="cls-6" x="75.56" y="0">O</tspan><tspan class="cls-4" x="91.97" y="0">M</tspan><tspan class="cls-5" x="110.88" y="0">P</tspan><tspan class="cls-2" x="123.21" y="0">A</tspan><tspan class="cls-8" x="138.18" y="0">S</tspan><tspan class="cls-7" x="151.4" y="0">S</tspan></text>
      </g>
    </g>
  </g>
</svg>